<svg xmlns="http://www.w3.org/2000/svg" xmlns:xlink="http://www.w3.org/1999/xlink" viewBox="0 0 274.21 233.23"><defs><style>.cls-1{fill:#5ece58;}.cls-2{fill:url(#Degradado_sin_nombre_2);}.cls-3{fill:url(#Degradado_sin_nombre_4);}.cls-4{fill:url(#Degradado_sin_nombre_7);}.cls-5{fill:url(#Degradado_sin_nombre_7-2);}.cls-6{fill:#fff;}</style><linearGradient id="Degradado_sin_nombre_2" x1="118.01" y1="277.6" x2="118.01" y2="141.9" gradientTransform="matrix(1.07, 0, 0, -1.07, 11.23, 291.27)" gradientUnits="userSpaceOnUse"><stop offset="0" stop-color="#ffcf95"/><stop offset="0.43" stop-color="#ffc954"/><stop offset="1" stop-color="#ffc200"/></linearGradient><linearGradient id="Degradado_sin_nombre_4" x1="118.01" y1="277.6" x2="118.01" y2="141.9" gradientTransform="matrix(1.07, 0, 0, -1.07, 11.23, 291.27)" gradientUnits="userSpaceOnUse"><stop offset="0" stop-color="#ffcf95"/><stop offset="0.43" stop-color="#ffc954"/><stop offset="1" stop-color="#e94e1b"/></linearGradient><linearGradient id="Degradado_sin_nombre_7" x1="118.01" y1="269.84" x2="118.01" y2="121.61" gradientTransform="matrix(1.07, 0, 0, -1.07, 11.23, 291.27)" gradientUnits="userSpaceOnUse"><stop offset="0" stop-color="#5b6a6a"/><stop offset="1" stop-color="#303033"/></linearGradient><linearGradient id="Degradado_sin_nombre_7-2" x1="118.01" y1="242.87" x2="118.01" y2="185.96" xlink:href="#Degradado_sin_nombre_7"/></defs><title>error404</title><g id="Capa_2" data-name="Capa 2"><g id="Capa_1-2" data-name="Capa 1"><path class="cls-1" d="M0,203.9V182.11l51-68.38H72.24v70.56H87.83V203.9H72.24V231H49.61V203.9Zm49.11-60.34L18.77,184.28H49.61V143.56Z"/><path class="cls-1" d="M97.46,143.14q3.43-11.65,9.3-18.69a33.35,33.35,0,0,1,13.66-10.06,45.33,45.33,0,0,1,16.51-3,45.8,45.8,0,0,1,16.68,3,34,34,0,0,1,13.74,10.06q5.95,7,9.39,18.69t3.44,28.74q0,17.6-3.44,29.42t-9.39,18.86a34,34,0,0,1-13.74,10.06,45.81,45.81,0,0,1-16.68,3,45.34,45.34,0,0,1-16.51-3,33.35,33.35,0,0,1-13.66-10.06q-5.87-7-9.3-18.86T94,171.88Q94,154.79,97.46,143.14Zm20.7,40.9a65.2,65.2,0,0,0,2.1,13.74,29.45,29.45,0,0,0,5.61,11.31q3.85,4.69,11.06,4.69,7.37,0,11.31-4.69a28.84,28.84,0,0,0,5.7-11.31A65.33,65.33,0,0,0,156,184q.33-7.12.34-12.15,0-3-.08-7.29a81.44,81.44,0,0,0-.67-8.8,82.35,82.35,0,0,0-1.68-9,27.54,27.54,0,0,0-3.27-8,18,18,0,0,0-5.53-5.7,14.77,14.77,0,0,0-8.21-2.18,14.35,14.35,0,0,0-8.13,2.18,17.49,17.49,0,0,0-5.36,5.7,30.81,30.81,0,0,0-3.27,8,61.71,61.71,0,0,0-1.68,9q-.5,4.53-.59,8.8t-.08,7.29Q117.83,176.91,118.16,184Z"/><path class="cls-1" d="M186.38,203.9V182.11l51-68.38h21.29v70.56h15.59V203.9H258.62V231H236V203.9Zm49.11-60.34-30.34,40.73H236V143.56Z"/><path id="SVGCleanerId_0" data-name="SVGCleanerId 0" class="cls-2" d="M193.71,86.22,146.49,5.39a10.87,10.87,0,0,0-18.77,0L80.49,86.22a10.87,10.87,0,0,0,9.39,16.35h94.45A10.87,10.87,0,0,0,193.71,86.22Z"/><path id="SVGCleanerId_0-2" data-name="SVGCleanerId 0" class="cls-3" d="M193.71,86.22,146.49,5.39a10.87,10.87,0,0,0-18.77,0L80.49,86.22a10.87,10.87,0,0,0,9.39,16.35h94.45A10.87,10.87,0,0,0,193.71,86.22Z"/><path class="cls-4" d="M188.7,89.15,141.47,8.32a5.06,5.06,0,0,0-8.74,0L85.51,89.15a5.06,5.06,0,0,0,4.37,7.61h94.45a5.06,5.06,0,0,0,4.37-7.61ZM180.55,91H93.66a1.42,1.42,0,0,1-1.22-2.13l43.45-74.37a1.42,1.42,0,0,1,2.45,0l43.45,74.37A1.42,1.42,0,0,1,180.55,91Z"/><path class="cls-5" d="M133.25,77.53a3.13,3.13,0,0,1,1.18-2.46,4.26,4.26,0,0,1,2.87-1,3.64,3.64,0,0,1,2.57,1,3.3,3.3,0,0,1,0,4.89,3.58,3.58,0,0,1-2.57,1,4.19,4.19,0,0,1-2.87-1A3.16,3.16,0,0,1,133.25,77.53Zm.38-40.46a2.75,2.75,0,0,1,1-2.28,4,4,0,0,1,2.6-.8,3,3,0,0,1,2.34.84,3.24,3.24,0,0,1,.75,2.25q0,4.62-.16,15.09T140,67.24a1.69,1.69,0,0,1-.9,1.51,3.58,3.58,0,0,1-1.88.55q-2.85,0-2.85-2.05,0-4.62-.38-15.09T133.63,37.07Z"/><rect class="cls-1" x="123.75" y="164.96" width="26.72" height="12.04" rx="1.44" ry="1.44"/><path class="cls-1" d="M149.28,164.43H124.93a1.71,1.71,0,0,0-1.71,1.71v9.69a1.71,1.71,0,0,0,1.71,1.71h24.35a1.71,1.71,0,0,0,1.71-1.71v-9.69A1.71,1.71,0,0,0,149.28,164.43Zm1.55,11.4a1.55,1.55,0,0,1-1.55,1.55H124.93a1.55,1.55,0,0,1-1.55-1.55v-9.69a1.55,1.55,0,0,1,1.55-1.55h24.35a1.55,1.55,0,0,1,1.55,1.55Z"/><path class="cls-6" d="M131.47,168.92a.82.82,0,0,0-.22-.56l-2.57,1.4a1.08,1.08,0,0,1-1.57-1,2.11,2.11,0,0,1,.06-.37l.76-2.09h-.73l-.08.22h0a1.08,1.08,0,0,1-1,.7h-.49l-.25.69h1.25l-.06.17,0,.11a1.77,1.77,0,0,0,1.64,2.33h.09a1.77,1.77,0,0,0,.76-.19l2.48-1.35A.8.8,0,0,0,131.47,168.92Z"/><path class="cls-6" d="M140.7,169.87h0a1.81,1.81,0,0,1-.43.48l.06,0a2.33,2.33,0,0,0,.87.2h2l-.63-.69h-1.21a2.32,2.32,0,0,1-.53-.06l-.11,0Z"/><polygon class="cls-6" points="127.49 167.96 127.49 167.96 127.49 167.96 128.86 167.96 129.12 167.27 127.74 167.27 127.49 167.96"/><path class="cls-6" d="M135.41,168.23l.19-.21a2.54,2.54,0,0,1,.53-.41h0l.13-.07h0l.1-.26h-.6l0,.07,0,.12-.19.54Z"/><path class="cls-6" d="M140.7,169.55h-.81l-.08.08a1,1,0,0,1-.56.24h-.08a1,1,0,0,1-.38-.08l-.69.38a1.64,1.64,0,0,0,1,.39h.1a1.64,1.64,0,0,0,.53-.09l.15-.06.23-.13a1.65,1.65,0,0,0,.5-.54A1.5,1.5,0,0,0,140.7,169.55Z"/><path class="cls-6" d="M143.34,170.52a.57.57,0,0,0,0-.8l-2.18-2.4a.57.57,0,0,0,0,.8Z"/><path class="cls-6" d="M132.29,168.74a1.43,1.43,0,0,0,0-.15A1.63,1.63,0,0,0,132,168l-.08-.1a1.65,1.65,0,0,0-2.91,1.07,1.62,1.62,0,0,0,.07.47h0l.61-.33a.92.92,0,0,1,0-.13,1,1,0,0,1,1.58-.73l.1.1a1,1,0,0,1,.24.63v0a.92.92,0,0,1,0,.17,1,1,0,0,1-.94.76,1,1,0,0,1-.34-.06l-.7.38a1.64,1.64,0,0,0,1,.37h0a1.65,1.65,0,0,0,1.63-1.65A1.47,1.47,0,0,0,132.29,168.74Z"/><path class="cls-6" d="M140.51,168l-3.74,2h0l.31.58,3.71-2A1.62,1.62,0,0,0,140.51,168Z"/><path class="cls-6" d="M132.93,168.25l.36-1-1.18.64a1.72,1.72,0,0,1,.28.64Z"/><path class="cls-6" d="M133.35,168h0a2.56,2.56,0,0,1,.64-.46l.1-.27h-.6l-.35,1Z"/><path class="cls-6" d="M136.2,167.72h0a2.42,2.42,0,0,0-1,1.24l-.59,1.61h.6l.53-1.47a1.86,1.86,0,0,1,1.1-1l.14,0a1.86,1.86,0,0,1,.47-.06l.24,0h0a1.79,1.79,0,0,1,.43-.48,2.42,2.42,0,0,0-1.67.12l-.14.07Z"/><path class="cls-6" d="M137.8,168a1.64,1.64,0,0,0-.28.92v0a1.6,1.6,0,0,0,.07.46l0,0,.59-.32a.92.92,0,0,1,0-.13A1,1,0,0,1,139,168l.17,0h0a1,1,0,0,1,.62.23l.63-.34a1.65,1.65,0,0,0-2-.38l-.14.08A1.65,1.65,0,0,0,137.8,168Z"/><polygon class="cls-6" points="143.92 167.96 144.17 167.27 141.36 167.27 141.99 167.96 143.92 167.96"/><path class="cls-6" d="M133.38,169.22h0a1.85,1.85,0,0,1,1.75-1.26h.18l.2-.54-.37,0a2.42,2.42,0,0,0-2.25,1.53l-.6,1.64h.6Z"/><circle class="cls-6" cx="145.42" cy="170.65" r="0.6"/><path class="cls-6" d="M142.13,173.64a1.08,1.08,0,0,1,.07-.37l.76-2.1h-.76a1.88,1.88,0,0,1-.06.25,1.08,1.08,0,0,1-1,.69H141l-.25.69h.9s0,.12-.06.18h0l0,.09a1.78,1.78,0,0,0,1.15,2.25l.24-.65A1.08,1.08,0,0,1,142.13,173.64Z"/><polygon class="cls-6" points="142.53 172.8 142.53 172.8 143.68 172.8 143.93 172.11 142.78 172.11 142.53 172.8"/><polygon class="cls-6" points="144.71 172.11 143.51 175.41 144.24 175.41 145.44 172.11 144.71 172.11"/><path class="cls-6" d="M140,172.67a1.65,1.65,0,0,0-1.24-.57h0a1.63,1.63,0,0,0-.78.2,1.59,1.59,0,0,0-.26.18,1.65,1.65,0,0,0,1.06,2.92H139v0l.31-.86a1,1,0,1,1,.35-.5h0l0,.11h0l-.44,1.21,0,.06H140l.39-1.08h0a1.65,1.65,0,0,0-.2-1.49Z"/><polygon class="cls-6" points="148.3 172.11 146.37 172.11 146.11 172.8 147.54 172.8 148.3 172.11"/><path class="cls-6" d="M148.52,172.11l-3,2.77a.2.2,0,0,0-.06.15v.39h.32l3-2.76a.33.33,0,0,0,.11-.25v-.3Z"/><path class="cls-6" d="M136.05,172.34h0l-.15-.08h0a1.63,1.63,0,0,0-.7-.16l-.26,0-.31.86a1,1,0,1,1-.36,1,.93.93,0,0,1,0-.22,1,1,0,0,1,.06-.33l.82-2.26h-.74l-.74,2a1.65,1.65,0,0,0,.2,1.49l.11.15a1.65,1.65,0,1,0,2.1-2.5Z"/><polygon class="cls-6" points="145.97 175.41 148.02 175.41 148.27 174.72 146.73 174.72 145.97 175.41"/><path class="cls-6" d="M132.82,175.41h.74l.21-.57a1.78,1.78,0,0,1-.37-1Z"/></g></g></svg>