<svg xmlns="http://www.w3.org/2000/svg" viewBox="0 0 85.35 43"><defs><style>.torresLogo-1{fill:#4d4d4d;}</style></defs><title>torrezLogo</title><g id="Capa_2" data-name="Capa 2"><g id="Capa_2-2" data-name="Capa 2"><path class="torresLogo-1" d="M80.21,0H5.14A5.15,5.15,0,0,0,0,5.14V37.86A5.15,5.15,0,0,0,5.14,43H80.21a5.15,5.15,0,0,0,5.14-5.14V5.14A5.15,5.15,0,0,0,80.21,0Zm4.71,37.86a4.71,4.71,0,0,1-4.71,4.71H5.14A4.71,4.71,0,0,1,.43,37.86V5.14A4.71,4.71,0,0,1,5.14.43H80.21a4.71,4.71,0,0,1,4.71,4.71Z"/><path class="torresLogo-1" d="M79.67,2h-74A3.76,3.76,0,0,0,1.92,5.79V37.21A3.76,3.76,0,0,0,5.68,41h74a3.76,3.76,0,0,0,3.76-3.76V5.79A3.76,3.76,0,0,0,79.67,2ZM70.94,25.65h6L75,27.54H70.25ZM67.87,19a2.1,2.1,0,1,1-2.1,2.1A2.1,2.1,0,0,1,67.87,19Zm-2.93-8.09-1.19,2H57.62l-1.54-2ZM64.28,26l-.87,2H59.2l.9-2Zm-9-14.84,7.09,7.93c.33,1.6-.76,1.56-.76,1.56l-7.17-8.32C54.47,10.89,55.31,11.15,55.31,11.15Zm3.84,8,1.92,2H53.53s-1.63-.72-.76-2ZM46.16,21a4.36,4.36,0,0,1-1.54-1l1.45-1a2.78,2.78,0,0,0,2,.65,3.51,3.51,0,0,0,2.59-2l2-.28C51.57,21,48.27,21.84,46.16,21Zm5-9.12-1.49,1a2.77,2.77,0,0,0-2.7-.14,3.51,3.51,0,0,0-1.65,2.81l-1.71,1c-.43-3.8,2.31-5.81,4.59-5.81A4,4,0,0,1,51.17,11.85ZM43.6,13.1c-6.24.92-6.46,8-6.46,8H35A10.44,10.44,0,0,1,45.33,10.88Zm-5.37-2.88h2.23L37.62,13.1Zm-5,0s-2.66,2.12-2.82,2.88l.81-2.88ZM14.74,20.81c-4.21,0-4.93-3.8-4.93-5.35a8.13,8.13,0,0,1,.62-2.93H6.16L7,10.61H8.71c2.71,0,3.72-3.15,3.72-3.15h2.2c0,1.41-2.91,5-2.91,7.33s1,3.84,2.91,3.84a9.25,9.25,0,0,0,3.77-1.2c.41-.21.82-.44,1.22-.67a40.68,40.68,0,0,0,4.27-2.89l1.19,1.79a37.9,37.9,0,0,1-4.4,3c-.42.25-.86.49-1.3.71A11.05,11.05,0,0,1,14.74,20.81ZM18.43,10.5l-.87,2H13.36l.9-2Zm4.14,10.57a3.38,3.38,0,0,1-2.71-1.14L21.21,19a2,2,0,0,0,1.36.44c1.69,0,3.06-1.65,3.06-3.69s-1.37-3.69-3.06-3.69a3.36,3.36,0,0,0-3,3.44l-1.31.78c0-.17,0-.35,0-.53,0-2.92,2-5.29,4.38-5.29s4.38,2.37,4.38,5.29S25,21.06,22.57,21.06Zm4.38-8.61,3.46-2-.92,2.77-1.79.87Zm.85,8.61c.88-7,5.16-10.19,9.56-10.19l-.76,2.23c-5.32.22-6.73,8-6.73,8ZM32.14,36H30.08L31,32.55a.16.16,0,0,1,.29,0,23.44,23.44,0,0,0,1.08,2.17Zm4.53,0c-1.68,0-5.76-1.06-4.61-6.63s2.14-6.08,2.14-6.08h2s-2.32,4.31-2.32,7.42S36.23,34,37,34a3.69,3.69,0,0,0,3.19-3.55,3.08,3.08,0,0,0-3.38-3.11l-1.23.22s-.25-2.1,1.09-2.1,5.31.07,5.31,5C41.94,34,39.47,36,36.67,36Zm4.1-16.72,10.7-6.72,1,1.49L41.94,20.81ZM52,35.82c-.44.77-2.36.48-2.36.48l.83-3.12a3.24,3.24,0,1,0-1.14.79l-.53,2.28a5.25,5.25,0,0,1-.7,0A5.33,5.33,0,1,1,53.39,31,11.31,11.31,0,0,1,52,35.82Zm8.42.48C57,36.18,55.65,33,55.65,31A8.13,8.13,0,0,1,56.27,28H53.36l.81-1.93h.39c2.71,0,3.72-3.15,3.72-3.15h2.2c0,1.41-2.91,4.7-2.91,7.33,0,2.44,1,3.84,2.91,3.84h.36Zm1.36,0,4.1-10.66h2.53L64.43,36.36Zm14.49-.51h-6l1.88-1.9h4.78Zm2.35-7.85L68.81,35.8h-.13a1.08,1.08,0,0,1-1-1.57l.16-.33,9.92-7.64a.49.49,0,0,1,.79.39Z"/></g></g></svg>