<svg xmlns="http://www.w3.org/2000/svg" xmlns:xlink="http://www.w3.org/1999/xlink" viewBox="0 0 974.33 487.34"><defs><style>.cls-1,.cls-12,.cls-4{fill:none;}.cls-2{fill:#4bb597;}.cls-3{font-size:20px;}.cls-3,.cls-9{font-family:MicrosoftSansSerif, Microsoft Sans Serif;}.cls-4{stroke:#3d995e;stroke-linecap:round;stroke-width:2px;stroke-dasharray:1 6;}.cls-10,.cls-11,.cls-12,.cls-4,.cls-8{stroke-miterlimit:10;}.cls-5{fill:#237a40;}.cls-6{clip-path:url(#clip-path);}.cls-7{fill:#4bb56e;}.cls-8{fill:#211915;}.cls-12,.cls-8{stroke:#211915;}.cls-9{font-size:12px;fill:#fff;}.cls-10{fill:#020201;}.cls-10,.cls-11{stroke:#020302;}.cls-11{fill:#020302;}</style><clipPath id="clip-path"><rect class="cls-1" x="420.3" y="213.26" width="146.46" height="207.37"/></clipPath></defs><title>Animate</title><g id="Capa_2" data-name="Capa 2"><g id="Capa_1-2" data-name="Capa 1"><rect class="cls-2" x="129.03" y="353.08" width="127.61" height="43.17" rx="10" ry="10"/><rect class="cls-2" x="866" y="361.26" width="108.33" height="43.17" rx="10" ry="10"/><rect class="cls-2" x="842.33" y="162.47" width="127.67" height="51" rx="10" ry="10"/><rect class="cls-2" x="697" y="10.42" width="160.33" height="51" rx="10" ry="10"/><rect class="cls-2" y="178.92" width="151.33" height="70" rx="10" ry="10"/><text class="cls-3" transform="translate(424.11 17.16)">Administración <tspan x="23.01" y="22">de copias </tspan><tspan x="6.17" y="44">e impresiones</tspan></text><text class="cls-3" transform="translate(682.1 138.36)">Facilidad de uso SOP</text><text class="cls-3" transform="translate(773.44 297.76)">Total Green<tspan x="-17.35" y="22">Office Solutions</tspan><tspan x="24.4" y="44">TGOS</tspan></text><text class="cls-3" transform="translate(69.66 316.94)">Monitoreo remoto</text><text class="cls-3" transform="translate(183.72 134.19)">Seguridad<tspan x="-30.43" y="22">de la información</tspan></text><line class="cls-4" x1="492.53" y1="145.54" x2="492.53" y2="64.81"/><line class="cls-4" x1="670.11" y1="138.36" x2="613.75" y2="194.71"/><line class="cls-4" x1="740.58" y1="315.94" x2="662.56" y2="315.94"/><line class="cls-4" x1="320.05" y1="315.94" x2="241.39" y2="315.94"/><line class="cls-4" x1="314.95" y1="138.36" x2="371.3" y2="194.71"/><path class="cls-5" d="M492.53,153.34a162.6,162.6,0,1,0,162.6,162.6A162.6,162.6,0,0,0,492.53,153.34Zm0,305.65A143.05,143.05,0,1,1,635.58,315.94,143.05,143.05,0,0,1,492.53,459Z"/><g class="cls-6"><image width="1388" height="1500" transform="translate(365.07 189.88) scale(0.18)" xlink:href="D:\RICOH MP-501SPF.JPG"/></g><path class="cls-7" d="M492.53,172.89A143.05,143.05,0,1,0,635.58,315.94,143.05,143.05,0,0,0,492.53,172.89Zm0,268.9A125.85,125.85,0,1,1,618.38,315.94,125.85,125.85,0,0,1,492.53,441.79Z"/><circle class="cls-4" cx="492.53" cy="315.94" r="170.4"/><path class="cls-8" d="M74.92,328.24v47.68m0,0h53.42"/><text class="cls-9" transform="translate(135.33 368.92)">Monitoreo remoto del<tspan x="0" y="14.4">equipo y sus recursos.</tspan></text><path class="cls-8" d="M223.33,170.92v43m0,0h-67"/><text class="cls-9" transform="translate(15.33 194.71)">- Encriptación del Disco<tspan x="0" y="14.4">duro.</tspan><tspan x="0" y="28.8">- Seguridad de copiado</tspan><tspan x="0" y="43.2">- Impresión segura</tspan></text><line class="cls-10" x1="576.33" y1="35.92" x2="689.33" y2="35.92"/><text class="cls-9" transform="translate(701.57 28.92)">Código de usuarios e<tspan x="0" y="14.4">impresiones confidenciales</tspan></text><line class="cls-11" x1="791.33" y1="153.35" x2="791.33" y2="192.43"/><text class="cls-9" transform="translate(853.33 176.92)">Panel táctil de 10’’<tspan x="0" y="14.4">de fácil manejo con</tspan><tspan x="0" y="28.8">tecnología Android</tspan></text><path class="cls-12" d="M770.33,329.92v55m0,0h92"/><text class="cls-9" transform="translate(877.74 378.92)">Amigable con el<tspan x="0" y="14.4">medio ambiente</tspan></text></g></g></svg>