<svg xmlns="http://www.w3.org/2000/svg" xmlns:xlink="http://www.w3.org/1999/xlink" viewBox="0 0 947.79 487.34"><defs><style>.multi-1,.multi-12,.multi-13,.multi-3{fill:none;}.multi-2{font-size:20px;}.multi-2,.multi-9{font-family:MicrosoftSansSerif, Microsoft Sans Serif;}.multi-3{stroke:#3d995e;stroke-linecap:round;stroke-width:2px;stroke-dasharray:1 6;}.multi-10,.multi-11,.multi-12,.multi-13,.multi-3,.multi-8{stroke-miterlimit:10;}.multi-4{fill:#237a40;}.multi-5{clip-path:url(#clip-path);}.multi-6{fill:#3d995e;}.multi-7{fill:#4bb56e;}.multi-8{fill:#211915;}.multi-13,.multi-8{stroke:#211915;}.multi-9{font-size:12px;}.multi-10{fill:#020201;}.multi-10,.multi-11,.multi-12{stroke:#020302;}.multi-11{fill:#020302;}</style><clipPath id="clip-path"><rect class="multi-1" x="404.96" y="213.26" width="146.46" height="207.37"/></clipPath></defs><title>imagenMulti2</title><g id="Capa_2" data-name="Capa 2"><g id="Capa_1-2" data-name="Capa 1"><text class="multi-2" transform="translate(408.78 17.16)">Administración <tspan x="23.01" y="22">de copias </tspan><tspan x="6.17" y="44">e impresiones</tspan></text><text class="multi-2" transform="translate(666.77 138.36)">Facilidad de uso SOP</text><text class="multi-2" transform="translate(758.1 297.76)">Total Green<tspan x="-17.35" y="22">Office Solutions</tspan><tspan x="24.4" y="44">TGOS</tspan></text><text class="multi-2" transform="translate(54.33 316.94)">Monitoreo remoto</text><text class="multi-2" transform="translate(168.38 134.19)">Seguridad<tspan x="-30.43" y="22">de la información</tspan></text><line class="multi-3" x1="477.19" y1="145.54" x2="477.19" y2="64.81"/><line class="multi-3" x1="654.77" y1="138.36" x2="598.42" y2="194.71"/><line class="multi-3" x1="725.24" y1="315.94" x2="647.23" y2="315.94"/><line class="multi-3" x1="304.72" y1="315.94" x2="226.06" y2="315.94"/><line class="multi-3" x1="299.61" y1="138.36" x2="355.96" y2="194.71"/><path class="multi-4" d="M477.19,153.34a162.6,162.6,0,1,0,162.6,162.6A162.6,162.6,0,0,0,477.19,153.34Zm0,305.65A143.05,143.05,0,1,1,620.24,315.94,143.05,143.05,0,0,1,477.19,459Z"/><g class="multi-5"><image width="1388" height="1500" transform="translate(349.74 189.88) scale(0.18)" xlink:href="Torres Batiz propuesta 2/Torres Batiz propuesta 2/images/torresimages/PROMOCIONES WEB/RICOH MP-501SPF.JPG"/></g><path class="multi-6" d="M477.19,162.47A153.47,153.47,0,1,0,630.66,315.94,153.47,153.47,0,0,0,477.19,162.47Zm0,288.49a135,135,0,1,1,135-135A135,135,0,0,1,477.19,451Z"/><path class="multi-7" d="M477.19,172.89A143.05,143.05,0,1,0,620.24,315.94,143.05,143.05,0,0,0,477.19,172.89Zm0,268.9A125.85,125.85,0,1,1,603,315.94,125.85,125.85,0,0,1,477.19,441.79Z"/><circle class="multi-3" cx="477.19" cy="315.94" r="170.4"/><path class="multi-8" d="M59.58,328.24v47.68m0,0H113"/><text class="multi-9" transform="translate(120 368.92)">Monitoreo remoto del<tspan x="0" y="14.4">equipo y sus recursos.</tspan></text><path class="multi-8" d="M208,170.92v43m0,0H141"/><text class="multi-9" transform="translate(0 194.71)">- Encriptación del Disco<tspan x="0" y="14.4">duro.</tspan><tspan x="0" y="28.8">- Seguridad de copiado</tspan><tspan x="0" y="43.2">- Impresión segura</tspan></text><line class="multi-10" x1="561" y1="35.92" x2="674" y2="35.92"/><text class="multi-9" transform="translate(686.24 28.92)">Código de usuarios e<tspan x="0" y="14.4">impresiones confidenciales</tspan></text><line class="multi-11" x1="776" y1="153.35" x2="776" y2="192.43"/><line class="multi-12" x1="776" y1="192.43" x2="827" y2="192.43"/><text class="multi-9" transform="translate(838 176.92)">Panel táctil de 10’’<tspan x="0" y="14.4">de fácil manejo con</tspan><tspan x="0" y="28.8">tecnología Android</tspan></text><path class="multi-13" d="M755,329.92v55m0,0h92"/><text class="multi-9" transform="translate(862.41 378.92)">Amigable con el<tspan x="0" y="14.4">medio ambiente</tspan></text></g></g></svg>