<svg xmlns="http://www.w3.org/2000/svg" xmlns:xlink="http://www.w3.org/1999/xlink" viewBox="0 0 945.1 486.92"><defs><style>.multi-1,.multi-19,.multi-41,.multi-49{fill:none;}.multi-2,.multi-9{font-size:20px;font-family:Geomanist-ExtraLight, Geomanist ExtraLight;}.multi-3{letter-spacing:-0.01em;}.multi-4{letter-spacing:-0.01em;}.multi-5{letter-spacing:0em;}.multi-6{letter-spacing:-0.01em;}.multi-7{letter-spacing:-0.01em;}.multi-8{letter-spacing:0em;}.multi-9{letter-spacing:-0.05em;}.multi-10{letter-spacing:-0.07em;}.multi-11{letter-spacing:-0.01em;}.multi-12{letter-spacing:0.02em;}.multi-13{letter-spacing:0.01em;}.multi-14{letter-spacing:-0.03em;}.multi-15{letter-spacing:-0.01em;}.multi-16{letter-spacing:0em;}.multi-17{letter-spacing:-0.01em;}.multi-18{letter-spacing:0em;}.multi-19{stroke:#3d995e;stroke-linecap:round;stroke-width:2px;stroke-dasharray:1 6;}.multi-19,.multi-24,.multi-36,.multi-40,.multi-41,.multi-49{stroke-miterlimit:10;}.multi-20{fill:#237a40;}.multi-21{clip-path:url(#clip-path);}.multi-22{fill:#3d995e;}.multi-23{fill:#4bb56e;}.multi-24{fill:#211915;}.multi-24,.multi-49{stroke:#211915;}.multi-25{font-size:12px;font-family:MyriadPro-Regular, Myriad Pro;}.multi-26{letter-spacing:0.01em;}.multi-27{letter-spacing:0em;}.multi-28{letter-spacing:-0.01em;}.multi-29{letter-spacing:0em;}.multi-30{letter-spacing:0em;}.multi-31{letter-spacing:-0.01em;}.multi-32{letter-spacing:-0.02em;}.multi-33{letter-spacing:0.01em;}.multi-34{letter-spacing:0.01em;}.multi-35{letter-spacing:0em;}.multi-36{fill:#020201;}.multi-36,.multi-40,.multi-41{stroke:#020302;}.multi-37{letter-spacing:0em;}.multi-38{letter-spacing:0em;}.multi-39{letter-spacing:-0.01em;}.multi-40{fill:#020302;}.multi-42{letter-spacing:-0.03em;}.multi-43{letter-spacing:0.01em;}.multi-44{letter-spacing:-0.06em;}.multi-45{letter-spacing:-0.09em;}.multi-46{letter-spacing:-0.01em;}.multi-47{letter-spacing:0em;}.multi-48{letter-spacing:-0.01em;}.multi-50{letter-spacing:0em;}.multi-51{letter-spacing:0em;}</style><clipPath id="clip-path"><rect class="multi-1" x="404.96" y="212.84" width="146.46" height="207.37"/></clipPath></defs><title>imagenMulti</title><g id="Capa_2" data-name="Capa 2"><g id="Capa_1-2" data-name="Capa 1"><text class="multi-2" transform="translate(411.69 16.74)"><tspan class="multi-3">A</tspan><tspan x="12" y="0">dminist</tspan><tspan class="multi-4" x="74.96" y="0">r</tspan><tspan class="multi-5" x="81.4" y="0">ación </tspan><tspan x="23.89" y="22">de </tspan><tspan class="multi-6" x="49.43" y="22">c</tspan><tspan x="58.27" y="22">opias </tspan><tspan x="7.51" y="44">e imp</tspan><tspan class="multi-7" x="54.51" y="44">r</tspan><tspan class="multi-8" x="60.85" y="44">esiones</tspan></text><text class="multi-9" transform="translate(677.33 137.94)">F<tspan class="multi-5" x="8.84" y="0">acilidad de uso SOP</tspan></text><text class="multi-2" transform="translate(763.28 297.34)"><tspan class="multi-10">T</tspan><tspan x="8.52" y="0">otal G</tspan><tspan class="multi-11" x="57.64" y="0">r</tspan><tspan x="63.98" y="0">een</tspan><tspan class="multi-12" x="-18.19" y="22">O</tspan><tspan x="-4.09" y="22">ffi</tspan><tspan class="multi-6" x="12.21" y="22">c</tspan><tspan x="21.05" y="22">e </tspan><tspan class="multi-13" x="35.31" y="22">S</tspan><tspan x="45.29" y="22">olutions</tspan><tspan class="multi-14" x="24.58" y="44">T</tspan><tspan x="33.98" y="44">GOS</tspan></text><text class="multi-2" transform="translate(55.87 316.52)"><tspan class="multi-13">M</tspan><tspan x="16.2" y="0">oni</tspan><tspan class="multi-6" x="42.96" y="0">t</tspan><tspan class="multi-8" x="49.46" y="0">o</tspan><tspan class="multi-7" x="60.44" y="0">r</tspan><tspan class="multi-8" x="66.78" y="0">eo </tspan><tspan class="multi-7" x="92.02" y="0">r</tspan><tspan class="multi-8" x="98.36" y="0">emo</tspan><tspan class="multi-15" x="136.04" y="0">t</tspan><tspan x="142.54" y="0">o</tspan></text><text class="multi-2" transform="translate(171.18 133.77)"><tspan class="multi-13">S</tspan><tspan class="multi-8" x="9.98" y="0">egu</tspan><tspan class="multi-16" x="42.2" y="0">r</tspan><tspan x="48.82" y="0">idad</tspan><tspan x="-29.72" y="22">de la in</tspan><tspan class="multi-17" x="30.2" y="22">f</tspan><tspan x="35.78" y="22">o</tspan><tspan class="multi-18" x="46.76" y="22">r</tspan><tspan x="53.38" y="22">mación</tspan></text><line class="multi-19" x1="477.19" y1="145.13" x2="477.19" y2="64.39"/><line class="multi-19" x1="654.77" y1="137.94" x2="598.42" y2="194.3"/><line class="multi-19" x1="725.24" y1="315.52" x2="647.23" y2="315.52"/><line class="multi-19" x1="304.72" y1="315.52" x2="226.06" y2="315.52"/><line class="multi-19" x1="299.61" y1="137.94" x2="355.96" y2="194.3"/><path class="multi-20" d="M477.19,152.92a162.6,162.6,0,1,0,162.6,162.6A162.6,162.6,0,0,0,477.19,152.92Zm0,305.65A143.05,143.05,0,1,1,620.24,315.52,143.05,143.05,0,0,1,477.19,458.58Z"/><g class="multi-21"><image width="1388" height="1500" transform="translate(349.74 189.46) scale(0.18)" xlink:href="Torres Batiz propuesta 2/Torres Batiz propuesta 2/images/torresimages/PROMOCIONES WEB/RICOH MP-501SPF.JPG"/></g><path class="multi-22" d="M477.19,162.05A153.47,153.47,0,1,0,630.66,315.52,153.47,153.47,0,0,0,477.19,162.05Zm0,288.49a135,135,0,1,1,135-135A135,135,0,0,1,477.19,450.54Z"/><path class="multi-23" d="M477.19,172.47A143.05,143.05,0,1,0,620.24,315.52,143.05,143.05,0,0,0,477.19,172.47Zm0,268.9A125.85,125.85,0,1,1,603,315.52,125.85,125.85,0,0,1,477.19,441.37Z"/><circle class="multi-19" cx="477.19" cy="315.52" r="170.4"/><path class="multi-24" d="M59.58,327.82v47.68m0,0H113"/><text class="multi-25" transform="translate(120 368.51)"><tspan class="multi-26">M</tspan><tspan x="9.72" y="0">oni</tspan><tspan class="multi-15" x="25.78" y="0">t</tspan><tspan x="29.68" y="0">o</tspan><tspan class="multi-11" x="36.26" y="0">r</tspan><tspan class="multi-27" x="40.07" y="0">eo </tspan><tspan class="multi-11" x="55.21" y="0">r</tspan><tspan class="multi-27" x="59.02" y="0">emo</tspan><tspan class="multi-15" x="81.62" y="0">t</tspan><tspan x="85.52" y="0">o del</tspan><tspan x="0" y="14.4">equipo y sus </tspan><tspan class="multi-11" x="65" y="14.4">r</tspan><tspan class="multi-27" x="68.81" y="14.4">ecurso</tspan><tspan class="multi-28" x="102.07" y="14.4">s</tspan><tspan x="106.69" y="14.4">.</tspan></text><path class="multi-24" d="M208,170.51v43m0,0H141"/><text class="multi-25" transform="translate(0 194.3)">- Enc<tspan class="multi-29" x="24.17" y="0">r</tspan><tspan class="multi-30" x="28.14" y="0">iptación del Dis</tspan><tspan class="multi-15" x="105.21" y="0">c</tspan><tspan x="110.52" y="0">o</tspan><tspan x="0" y="14.4">du</tspan><tspan class="multi-31" x="13.38" y="14.4">r</tspan><tspan class="multi-32" x="17.18" y="14.4">o</tspan><tspan x="23.48" y="14.4">.</tspan><tspan x="0" y="28.8">- </tspan><tspan class="multi-33" x="6.23" y="28.8">S</tspan><tspan x="12.22" y="28.8">egu</tspan><tspan class="multi-29" x="31.55" y="28.8">r</tspan><tspan class="multi-30" x="35.52" y="28.8">idad de </tspan><tspan class="multi-15" x="75.51" y="28.8">c</tspan><tspan x="80.82" y="28.8">opiado</tspan><tspan x="0" y="43.2">- </tspan><tspan class="multi-34" x="6.23" y="43.2">I</tspan><tspan x="9.22" y="43.2">mp</tspan><tspan class="multi-11" x="26.05" y="43.2">r</tspan><tspan x="29.86" y="43.2">esión segu</tspan><tspan class="multi-35" x="83.3" y="43.2">r</tspan><tspan x="87.17" y="43.2">a</tspan></text><line class="multi-36" x1="561" y1="35.51" x2="674" y2="35.51"/><text class="multi-25" transform="translate(686.24 28.51)"><tspan class="multi-28">C</tspan><tspan x="6.83" y="0">ódigo de usua</tspan><tspan class="multi-37" x="77.92" y="0">r</tspan><tspan class="multi-38" x="81.89" y="0">ios e</tspan><tspan x="0" y="14.4">imp</tspan><tspan class="multi-11" x="19.64" y="14.4">r</tspan><tspan class="multi-38" x="23.45" y="14.4">esiones </tspan><tspan class="multi-39" x="63.58" y="14.4">c</tspan><tspan x="68.88" y="14.4">onfidenciales</tspan></text><line class="multi-40" x1="776" y1="152.93" x2="776" y2="192.02"/><line class="multi-41" x1="776" y1="192.02" x2="827" y2="192.02"/><text class="multi-25" transform="translate(838 176.51)"><tspan class="multi-42">P</tspan><tspan x="6.07" y="0">anel tá</tspan><tspan class="multi-43" x="39.66" y="0">c</tspan><tspan x="45.19" y="0">til de 10</tspan><tspan class="multi-44" x="84.98" y="0">’</tspan><tspan class="multi-45" x="86.77" y="0">’</tspan><tspan x="0" y="14.4">de fácil manejo </tspan><tspan class="multi-39" x="78.68" y="14.4">c</tspan><tspan class="multi-38" x="83.99" y="14.4">on</tspan><tspan class="multi-46" x="0" y="28.8">t</tspan><tspan x="3.9" y="28.8">ecnolo</tspan><tspan class="multi-46" x="37.96" y="28.8">g</tspan><tspan x="44.59" y="28.8">ía </tspan><tspan class="multi-47" x="55.73" y="28.8">A</tspan><tspan x="63.04" y="28.8">nd</tspan><tspan class="multi-48" x="76.46" y="28.8">r</tspan><tspan x="80.27" y="28.8">oid</tspan></text><path class="multi-49" d="M755,329.51v55m0,0h92"/><text class="multi-25" transform="translate(862.41 378.51)"><tspan class="multi-50">A</tspan><tspan x="7.31" y="0">migable </tspan><tspan class="multi-46" x="50.83" y="0">c</tspan><tspan x="56.14" y="0">on el</tspan><tspan x="0" y="14.4">medio ambie</tspan><tspan class="multi-51" x="66.17" y="14.4">n</tspan><tspan class="multi-39" x="72.78" y="14.4">t</tspan><tspan class="multi-38" x="76.68" y="14.4">e</tspan></text></g></g></svg>