<svg xmlns="http://www.w3.org/2000/svg" xmlns:xlink="http://www.w3.org/1999/xlink" viewBox="0 0 820.72 486.92"><defs><style>.cls-1,.cls-19{fill:none;}.cls-2,.cls-9{font-size:20px;font-family:Geomanist-ExtraLight, Geomanist ExtraLight;}.cls-3{letter-spacing:-0.01em;}.cls-4{letter-spacing:-0.01em;}.cls-5{letter-spacing:0em;}.cls-6{letter-spacing:-0.01em;}.cls-7{letter-spacing:-0.01em;}.cls-8{letter-spacing:0em;}.cls-9{letter-spacing:-0.05em;}.cls-10{letter-spacing:-0.07em;}.cls-11{letter-spacing:-0.01em;}.cls-12{letter-spacing:0.02em;}.cls-13{letter-spacing:0.01em;}.cls-14{letter-spacing:-0.03em;}.cls-15{letter-spacing:-0.01em;}.cls-16{letter-spacing:0em;}.cls-17{letter-spacing:-0.01em;}.cls-18{letter-spacing:0em;}.cls-19{stroke:#3d995e;stroke-linecap:round;stroke-miterlimit:10;stroke-width:2px;stroke-dasharray:1 6;}.cls-20{fill:#237a40;}.cls-21{clip-path:url(#clip-path);}.cls-22{fill:#3d995e;}.cls-23{fill:#4bb56e;}</style><clipPath id="clip-path"><rect class="cls-1" x="349.09" y="212.84" width="146.46" height="207.37"/></clipPath></defs><title>imagenMultifuncional</title><g id="Capa_2" data-name="Capa 2"><g id="Capa_1-2" data-name="Capa 1"><text class="cls-2" transform="translate(355.82 16.74)"><tspan class="cls-3">A</tspan><tspan x="12" y="0">dminist</tspan><tspan class="cls-4" x="74.96" y="0">r</tspan><tspan class="cls-5" x="81.4" y="0">ación </tspan><tspan x="23.89" y="22">de </tspan><tspan class="cls-6" x="49.43" y="22">c</tspan><tspan x="58.27" y="22">opias </tspan><tspan x="7.51" y="44">e imp</tspan><tspan class="cls-7" x="54.51" y="44">r</tspan><tspan class="cls-8" x="60.85" y="44">esiones</tspan></text><text class="cls-9" transform="translate(621.45 137.94)">F<tspan class="cls-5" x="8.84" y="0">acilidad de uso SOP</tspan></text><text class="cls-2" transform="translate(707.41 297.34)"><tspan class="cls-10">T</tspan><tspan x="8.52" y="0">otal G</tspan><tspan class="cls-11" x="57.64" y="0">r</tspan><tspan x="63.98" y="0">een</tspan><tspan class="cls-12" x="-18.19" y="22">O</tspan><tspan x="-4.09" y="22">ffi</tspan><tspan class="cls-6" x="12.21" y="22">c</tspan><tspan x="21.05" y="22">e </tspan><tspan class="cls-13" x="35.31" y="22">S</tspan><tspan x="45.29" y="22">olutions</tspan><tspan class="cls-14" x="24.58" y="44">T</tspan><tspan x="33.98" y="44">GOS</tspan></text><text class="cls-2" transform="translate(0 316.52)"><tspan class="cls-13">M</tspan><tspan x="16.2" y="0">oni</tspan><tspan class="cls-6" x="42.96" y="0">t</tspan><tspan class="cls-8" x="49.46" y="0">o</tspan><tspan class="cls-7" x="60.44" y="0">r</tspan><tspan class="cls-8" x="66.78" y="0">eo </tspan><tspan class="cls-7" x="92.02" y="0">r</tspan><tspan class="cls-8" x="98.36" y="0">emo</tspan><tspan class="cls-15" x="136.04" y="0">t</tspan><tspan x="142.54" y="0">o</tspan></text><text class="cls-2" transform="translate(115.31 133.77)"><tspan class="cls-13">S</tspan><tspan class="cls-8" x="9.98" y="0">egu</tspan><tspan class="cls-16" x="42.2" y="0">r</tspan><tspan x="48.82" y="0">idad</tspan><tspan x="-29.72" y="22">de la in</tspan><tspan class="cls-17" x="30.2" y="22">f</tspan><tspan x="35.78" y="22">o</tspan><tspan class="cls-18" x="46.76" y="22">r</tspan><tspan x="53.38" y="22">mación</tspan></text><line class="cls-19" x1="421.32" y1="145.13" x2="421.32" y2="64.39"/><line class="cls-19" x1="598.9" y1="137.94" x2="542.55" y2="194.3"/><line class="cls-19" x1="669.37" y1="315.52" x2="591.36" y2="315.52"/><line class="cls-19" x1="248.85" y1="315.52" x2="170.18" y2="315.52"/><line class="cls-19" x1="243.74" y1="137.94" x2="300.09" y2="194.3"/><path class="cls-20" d="M421.32,152.92a162.6,162.6,0,1,0,162.6,162.6A162.6,162.6,0,0,0,421.32,152.92Zm0,305.65A143.05,143.05,0,1,1,564.37,315.52,143.05,143.05,0,0,1,421.32,458.58Z"/><g class="cls-21"><image width="1388" height="1500" transform="translate(293.87 189.46) scale(0.18)" xlink:href="Torres Batiz propuesta 2/Torres Batiz propuesta 2/images/torresimages/PROMOCIONES WEB/RICOH MP-501SPF.JPG"/></g><path class="cls-22" d="M421.32,162.05A153.47,153.47,0,1,0,574.79,315.52,153.47,153.47,0,0,0,421.32,162.05Zm0,288.49a135,135,0,1,1,135-135A135,135,0,0,1,421.32,450.54Z"/><path class="cls-23" d="M421.32,172.47A143.05,143.05,0,1,0,564.37,315.52,143.05,143.05,0,0,0,421.32,172.47Zm0,268.9A125.85,125.85,0,1,1,547.17,315.52,125.85,125.85,0,0,1,421.32,441.37Z"/><circle class="cls-19" cx="421.32" cy="315.52" r="170.4"/></g></g></svg>